<svg width="44" height="44" viewBox="0 0 44 44" fill="none" xmlns="http://www.w3.org/2000/svg">
<rect width="44" height="44" rx="9" fill="#F5F8FF"/>
<path d="M19.0101 21.75C19.4243 21.75 19.7601 21.4142 19.7601 21C19.7601 20.5858 19.4243 20.25 19.0101 20.25V21.75ZM19.0001 20.25C18.5858 20.25 18.2501 20.5858 18.2501 21C18.2501 21.4142 18.5858 21.75 19.0001 21.75V20.25ZM25.01 21.75C25.4243 21.75 25.76 21.4142 25.76 21C25.76 20.5858 25.4243 20.25 25.01 20.25V21.75ZM25 20.25C24.5858 20.25 24.25 20.5858 24.25 21C24.25 21.4142 24.5858 21.75 25 21.75V20.25ZM16.7781 18.75H27.222V17.25H16.7781V18.75ZM29.4653 20.8274L30.0038 27.8274L31.4994 27.7124L30.9609 20.7124L29.4653 20.8274ZM27.7604 30.25H16.2397V31.75H27.7604V30.25ZM13.9963 27.8274L14.5348 20.8274L13.0392 20.7124L12.5007 27.7124L13.9963 27.8274ZM16.2397 30.25C14.929 30.25 13.8958 29.1342 13.9963 27.8274L12.5007 27.7124C12.3332 29.8904 14.0553 31.75 16.2397 31.75V30.25ZM30.0038 27.8274C30.1043 29.1342 29.0711 30.25 27.7604 30.25V31.75C29.9448 31.75 31.6669 29.8904 31.4994 27.7124L30.0038 27.8274ZM27.222 18.75C28.3977 18.75 29.3752 19.6552 29.4653 20.8274L30.9609 20.7124C30.8106 18.7587 29.1815 17.25 27.222 17.25V18.75ZM16.7781 17.25C14.8186 17.25 13.1895 18.7587 13.0392 20.7124L14.5348 20.8274C14.6249 19.6552 15.6024 18.75 16.7781 18.75V17.25ZM24.25 16V18H25.75V16H24.25ZM19.7501 18V16H18.2501V18H19.7501ZM22 13.75C23.2427 13.75 24.25 14.7574 24.25 16H25.75C25.75 13.9289 24.0711 12.25 22 12.25V13.75ZM22 12.25C19.929 12.25 18.2501 13.9289 18.2501 16H19.7501C19.7501 14.7574 20.7574 13.75 22 13.75V12.25ZM19.0101 20.25H19.0001V21.75H19.0101V20.25ZM25.01 20.25H25V21.75H25.01V20.25Z" fill="#252432"/>
</svg>
